<svg id="_0349_product_manager" xmlns="http://www.w3.org/2000/svg" xmlns:xlink="http://www.w3.org/1999/xlink" viewBox="0 0 500 500" data-imageid="product-manager-26" imageName="Product Manager" class="illustrations_image" style="width: 140px;"><defs><style>.cls-1_product-manager-26{fill:none;stroke:#fff;stroke-miterlimit:10;stroke-width:1.13px;}.cls-2_product-manager-26{fill:url(#linear-gradient);}.cls-2_product-manager-26,.cls-3_product-manager-26,.cls-4_product-manager-26,.cls-5_product-manager-26,.cls-6_product-manager-26,.cls-7_product-manager-26,.cls-8_product-manager-26,.cls-9_product-manager-26,.cls-10_product-manager-26,.cls-11_product-manager-26{stroke-width:0px;}.cls-3_product-manager-26{opacity:.18;}.cls-3_product-manager-26,.cls-4_product-manager-26,.cls-10_product-manager-26,.cls-11_product-manager-26{fill:#68e1fd;}.cls-3_product-manager-26,.cls-4_product-manager-26,.cls-11_product-manager-26{isolation:isolate;}.cls-4_product-manager-26{opacity:.46;}.cls-5_product-manager-26{fill:url(#linear-gradient-2-product-manager-26);}.cls-6_product-manager-26{fill:url(#linear-gradient-3-product-manager-26);}.cls-7_product-manager-26{fill:#231f20;}.cls-8_product-manager-26{fill:#c14834;}.cls-9_product-manager-26{fill:#ffb4a3;}.cls-11_product-manager-26{opacity:.56;}</style><linearGradient id="linear-gradient-product-manager-26" x1="-999.96" y1="1819.77" x2="-1001.87" y2="1756.18" gradientTransform="translate(1282.29 1978.1) scale(1 -1)" gradientUnits="userSpaceOnUse"><stop offset="0" stop-color="#000"/><stop offset=".13" stop-color="#000" stop-opacity=".69"/><stop offset="1" stop-color="#000" stop-opacity="0"/></linearGradient><linearGradient id="linear-gradient-2-product-manager-26" x1="-1010.19" y1="1849.92" x2="-1060.73" y2="1749.14" gradientTransform="translate(1282.29 1978.1) scale(1 -1)" gradientUnits="userSpaceOnUse"><stop offset="0" stop-color="#000"/><stop offset="1" stop-color="#000" stop-opacity="0"/></linearGradient><linearGradient id="linear-gradient-3-product-manager-26" x1="-957.22" y1="1644.31" x2="-964.53" y2="1763.85" xlink:href="#linear-gradient-2-product-manager-26"/></defs><g id="background_product-manager-26"><path class="cls-3_product-manager-26 targetColor" d="M38.88,284.97v111.87c-30.09-32.82-21.18-74.54,0-111.87Z" style="fill: rgb(104, 225, 253);"/><path class="cls-3_product-manager-26 targetColor" d="M486.84,272.6c-6.97,17.66-24.46,28.36-38.07,41.58-27.24,26.45-40.3,64.9-63.27,94.66-5.41,7.13-11.58,13.65-18.39,19.45-26.7,22.46-62.74,30.02-97.42,34.03-36.08,4.32-72.63,2.57-108.13-5.19-33.68-7.44-65.84-20.56-95.12-38.79l150.26-84.8,35.31-19.93,1.8-1.02V44.99l-84.67,37.05c5.36-7.44,11.4-14.36,18.04-20.68,25.24-23.74,65.97-35.64,94.85-16.46,17.34,11.44,26.86,31.31,41.3,46.19,28.48,29.4,72.74,36.67,106.87,59.32,29.41,19.7,50.1,49.97,57.78,84.52,2.67,12.46,3.55,25.82-1.14,37.67Z" style="fill: rgb(104, 225, 253);"/><path class="cls-3_product-manager-26 targetColor" d="M385.5,408.85c-5.41,7.13-11.58,13.65-18.39,19.45-26.7,22.46-62.74,30.02-97.42,34.03-36.08,4.32-72.63,2.57-108.13-5.19-2.29-4.12-3.51-8.75-3.54-13.46,0-31.6,56.79-57.22,126.85-57.22,41,0,77.46,8.77,100.64,22.39Z" style="fill: rgb(104, 225, 253);"/></g><g id="board_product-manager-26"><polygon class="cls-4_product-manager-26 targetColor" points="253.8 44.99 253.8 312.63 252 313.64 216.7 333.55 66.43 418.37 38.88 433.91 38.88 139.06 169.13 82.05 253.8 44.99" style="fill: rgb(104, 225, 253);"/><polygon class="cls-11_product-manager-26 targetColor" points="174.02 184.9 151.65 195.7 151.65 159.45 174.02 148.65 174.02 184.9" style="fill: rgb(104, 225, 253);"/><polygon class="cls-11_product-manager-26 targetColor" points="211.36 228.06 189 238.86 189 202.61 211.36 191.81 211.36 228.06" style="fill: rgb(104, 225, 253);"/><path class="cls-1_product-manager-26" d="M103.71,248c6.63-2.37,10.84-9.08,12.51-15.91,1.67-6.84,1.34-13.96,1.75-20.98.2-3.39.71-7.05,3.1-9.45"/><path class="cls-1_product-manager-26" d="M100.45,258.53l27.45-11.88c8.31-3.6,16.95-7.27,26.01-7"/><path class="cls-1_product-manager-26" d="M99.99,268.17c8.31-3.31,18.22-5.36,25.87-.71,4.95,3,7.95,8.22,11.86,12.47,3.91,4.25,9.91,7.73,15.24,5.61"/><path class="cls-1_product-manager-26" d="M142.54,190.34c1.84-5.02,4.77-9.56,8.59-13.29"/><path class="cls-1_product-manager-26" d="M174.83,224.86c5.66-2.73,10.93-6.22,15.67-10.35"/><polygon class="cls-11_product-manager-26 targetColor" points="177.19 294.26 154.83 305.07 154.83 268.81 177.19 258.01 177.19 294.26" style="fill: rgb(104, 225, 253);"/><polygon class="cls-11_product-manager-26 targetColor" points="175.29 247.22 152.92 258.01 152.92 221.76 175.29 210.96 175.29 247.22" style="fill: rgb(104, 225, 253);"/><polygon class="cls-11_product-manager-26 targetColor" points="107.78 282.81 70.91 300.61 70.91 240.85 107.78 223.04 107.78 282.81" style="fill: rgb(104, 225, 253);"/><polygon class="cls-11_product-manager-26 targetColor" points="142.87 210.97 120.5 221.77 120.5 185.52 142.87 174.72 142.87 210.97" style="fill: rgb(104, 225, 253);"/></g><g id="character_product-manager-26"><path class="cls-8_product-manager-26" d="M286.79,139.92c-8.32-.48-16.09,4.14-19.64,11.68-3.85,8.58-1.35,19.16-5.83,27.43-2.12,3.9-5.57,6.86-8.87,9.83-.28.21-.5.51-.62.84-.17.62.32,1.24.79,1.65,2.48,2.05,5.26,3.72,8.24,4.95,2.65,1.48,5.57,2.39,8.59,2.67,1.83-.04,3.65-.3,5.41-.78,3-.71,4.78,2.89,7.78,2.13,3.21-.67,6.47-1.08,9.75-1.24,2.48-.16,4.58-4.52,7.03-4.82,5.11-.62,9.58-3.62,13.84-6.53-3.49-2.04-5.37-5.99-6.64-9.91-1.82-5.6-2.75-11.45-2.76-17.34,0-3.72.37-7.72-1.09-11.15-1.29-2.97-3.76-5.28-6.82-6.35-3.01-1.13-5.92-2.84-9.16-3.08Z"/><path class="cls-2_product-manager-26" d="M299.43,165.84c0-2.65-.15-5.29-.48-7.91-.35-2.66-1.78-5.06-3.95-6.63-3.03-1.92-6.98-1.14-10.4,0-1.71.5-3.34,1.21-4.87,2.13-3.85,2.48-5.91,7.06-6.92,11.55-1.02,4.5-1.24,9.14-2.48,13.62s-3.72,8.83-7.94,10.77c-1.63.57-3.22,1.23-4.77,1.98-.38.16-.65.5-.73.9,0,.33.14.65.37.89,2.58,3.22,7.08,4.06,11.15,4.41,4.31.37,8.67.47,12.97.56,3.43.07,6.98.14,10.17-1.16,3.18-1.3,5.71-3.8,8.97-4.77,1.73-.52,4.72-.71,5.25-2.87.47-1.88-1.63-5.03-2.29-6.71-2.2-5.35-3.57-11-4.04-16.77Z"/><path class="cls-7_product-manager-26" d="M304.55,432.92c1.38,1.83,3.17,3.3,5.24,4.3,4.02,1.83,8.39,2.72,12.8,2.61,1.8,0,3.72-.1,5.06-1.31,1.14-1.16,1.6-2.82,1.24-4.41-.38-1.56-1.16-2.98-2.28-4.14-4.45-4.95-11.27-6.67-17.61-7.6-2.6-.38-5.18-.95-6.3,1.94-1,2.64.31,6.45,1.85,8.61Z"/><path class="cls-7_product-manager-26" d="M245.18,428.19c-1.11,1.03-1.92,2.35-2.33,3.81-.5,2.72,1.93,5.31,4.63,5.92,2.7.61,5.51-.26,8.07-1.34,3.74-1.58,7.29-3.57,10.59-5.94.9-.58,1.69-1.32,2.34-2.17,1.44-2.09,1.1-4.88.63-7.37,0-.98-.8-1.78-1.79-1.78-.21,0-.41.04-.6.11-2.48.14-5.05.35-7.58.36-1.42-.16-2.86-.13-4.27.09-3.68.98-7.15,5.56-9.7,8.31Z"/><path class="cls-4_product-manager-26 targetColor" d="M253.17,251.55c-.26,16.64-1.24,33.32,0,49.92.28,4.07.5,8.67-1.16,12.16l-35.31,19.93c-.8.4-1.76.31-2.48-.24-.33-.47-.5-1.04-.46-1.61-.58-11.23,1.24-22.43,2.55-33.6,1.94-17.05,2.56-34.44-.79-51.27-.71-4.33-2.13-8.52-4.21-12.38-2.67-4.58-6.75-8.15-10.29-12.11-5.14-5.77-9.18-12.38-13.19-19.05-2.8-4.62-17.67-22.98-11.62-27.24,9.45-6.72,12.85,12.9,14.38,17.34,1.72,5.03,5.13,9.28,8.76,13.15,8.67,9.3,18.95,17,29.31,24.43,1.64-1.75,2.83-3.88,3.47-6.19,1.83-4.95,3.72-10.23,2.76-15.45-.7-2.86-1.71-5.64-3.01-8.28-3.22-7.79-4.53-16.61-2.19-24.77,2.34-8.16,8.73-15.26,16.95-17.09.64-.21,1.33-.21,1.97,0,.48.24,2.76-.26,5.14-.77v79.74c-.3,4.57-.52,9.03-.58,13.39Z" style="fill: rgb(104, 225, 253);"/><path class="cls-9_product-manager-26" d="M271.35,174.19c-.17,1.16-1.68,2.98-1.11,4.02,1.24,2.14,2.79,3.34,3.98,5.49.89,1.59,2.48-.24,3.02,1.51.89,3.18,1.44,6.45,1.66,9.75,0,1.72-.19,3.59.8,4.95.75.97,1.85,1.6,3.07,1.75,1.2.12,2.42,0,3.58-.36,1.43-.24,2.69-1.1,3.43-2.35.33-.94.44-1.95.31-2.93-.1-1.25.01-2.5.33-3.72.33-1.24,1.15-2.28,2.27-2.91.79-.33,1.63-.54,2.48-.64,2.62-.44,5.01-1.78,6.75-3.79,2.19-2.7,2.66-6.38,2.76-9.85.12-4.88-.34-9.76-1.37-14.53-1.24-5.52-3.19-10.17-7.99-13.16-5.39-3.38-12.87-2.13-17.75,1.96-4.88,4.09-7.43,10.48-7.98,16.82-.28,3.03-.46,5.88,1.76,8Z"/><path class="cls-8_product-manager-26" d="M276.97,177.33c-.33-.73-.75-1.42-1.24-2.06-.34-.51-.86-.87-1.45-1.02-.81-.03-1.54.47-1.8,1.24-.25.74-.3,1.53-.16,2.29.08,1.15.41,2.28.95,3.29.56,1.02,1.57,1.72,2.72,1.88.25-.01.51.03.74.14.3.22.48.55.51.92.22.88.19,2.15-.72,2.28-.49-.02-.94-.25-1.24-.64-1.52-1.35-2.88-2.87-4.05-4.53-1.47-2.58-2.52-5.37-3.1-8.28-.36-1.4-.67-3.02.22-4.16.43-.48.96-.87,1.56-1.11,1.92-.92,7.01-3.21,7.49.17.37,2.97-1.89,6.59-.46,9.6Z"/><path class="cls-8_product-manager-26" d="M292,158.56c-3,4-7.11,7.01-11.83,8.67-1.58.65-3.25,1.06-4.95,1.24-1.13-.02-2.27.1-3.37.36-1.31.58-2.45,1.47-3.33,2.6-1.13-2.82-2.27-5.75-2.14-8.78.18-2.03.67-4.03,1.47-5.91,1.52-4.01,3.5-8.07,6.97-10.61,2.75-1.87,5.99-2.89,9.31-2.92,2.41-.05,4.82.16,7.19.61,2.55.46,3.02.79,3.44,3.42.55,3.99-.44,8.04-2.77,11.33Z"/><path class="cls-10_product-manager-26 targetColor" d="M311.56,230.62c-1.33,1.92-2.3,4.07-2.86,6.34-.12.62-.26,1.24-.38,1.85-1.07,5.14-2.14,10.28-3.19,15.41-.62,2.92-1.39,6.09-3.78,7.88-1.35.89-2.88,1.47-4.48,1.72-1.45.3-2.92.56-4.4.77-7.42,1.03-14.96.76-22.29-.79-1.78-.38-3.72-.95-4.77-2.48-1.05-1.52-.88-3.52-1.04-5.34-.68-7.85-7.9-15.21-5.15-22.6.79-2.09,2.28-4.56,2.14-6.54-.03-.76-.38-1.48-.95-1.98-.72-.56-1.58-.92-2.48-1.06-6.63-1.63-13.34-3.23-19.49-6.19-5.44-2.8-10.59-6.12-15.39-9.91l-18.29-13.55c-1.22-.67-2.12-1.81-2.48-3.16-.02-.14-.02-.29,0-.43.09-.89.4-1.74.9-2.48l.07-.15c.38-.67.78-1.35,1.24-2.01,1.59-2.48,3.54-4.71,6.33-5.31,4.07-.88,7.81,2.13,11.05,4.77,8.52,6.92,17.75,14.7,28.48,16.62,6.23.91,12.52,1.25,18.81,1.02.75.08,1.51-.09,2.15-.5,1.18-.97.63-2.91,1.41-4.21.78-1.3,2.91-1.5,4.62-1.41,4.75.2,9.52-.14,14.19-1.03-.28-1.13,1.41-.61,2.38,0,.88.8,1.34,1.97,1.24,3.16-.11,1.17.13,2.34.67,3.38.91.98,2.13,1.6,3.46,1.76,3.91.94,7.55,2.78,10.63,5.36,1.75,1.51,3.18,3.36,4.21,5.42.76,1.51,1.25,3.15,1.46,4.83.5,4.35-1.87,7.45-4.01,10.85Z" style="fill: rgb(104, 225, 253);"/><path class="cls-5_product-manager-26" d="M261.65,226.63l-.31.22c-.03-.76-.38-1.48-.95-1.98-.72-.56-1.58-.92-2.48-1.06-6.63-1.63-13.34-3.23-19.49-6.19-5.44-2.8-10.59-6.12-15.39-9.91l-18.28-13.57c-1.22-.67-2.12-1.81-2.48-3.16-.02-.14-.02-.29,0-.43.24-.85.54-1.68.9-2.48l.07-.15c.02-.84.49-1.61,1.24-2.01,1.77-.94,6.44,2.74,17.1,12.56,18.44,16.95,36.67,14.2,40.06,19.49,3.39,5.29,0,8.67,0,8.67Z"/><path class="cls-10_product-manager-26 targetColor" d="M352.76,264.53c-.49,2.61-1.17,5.18-2.02,7.69,0,.1-.06.21-.1.32-.25,1-.77,1.91-1.5,2.64-1.26.83-2.81,1.12-4.28.78-6.55-.79-12.63-3.78-17.25-8.48-1.79-1.89-3.44-3.89-4.95-6.01-5.31-7.15-10.76-14.59-14.38-22.66-2.04-4.39-3.39-9.06-4.01-13.86,0-.41-.09-.85-.12-1.34-.21-3.1,0-7.43,2.64-9.06,2.07-1.33,4.95-.71,7.32.54,1.08.55,2.08,1.27,2.93,2.13,2.82,2.9,4.21,6.87,5.59,10.69,2.58,7.1,5.5,14.15,10.01,20.19,4.51,6.03,10.76,11.07,18.09,12.79.53.08,1.04.28,1.49.58.7.86.91,2.01.56,3.06Z" style="fill: rgb(104, 225, 253);"/><path class="cls-6_product-manager-26" d="M345.95,272.32c0,1.41,1.68,3.19,2.93,2.54.72-.37,1.77-2.37,1.76-2.32-.25,1-.77,1.91-1.5,2.64-1.26.83-2.81,1.12-4.28.78-6.55-.79-12.63-3.78-17.25-8.48-1.79-1.89-3.44-3.89-4.95-6.01-5.31-7.15-10.76-14.59-14.38-22.66-1.07,5.14-2.14,10.28-3.19,15.41-.62,2.92-1.39,6.09-3.78,7.88-1.35.89-2.88,1.47-4.48,1.72-1.45.3-2.92.56-4.4.77-.43-.51-.74-1.1-.92-1.75-.89-3.32,2.15-6.19,4.12-9.03,2.8-3.96,3.72-8.93,4.09-13.77.37-4.84.32-9.72,1.46-14.43.1-.6.37-1.16.76-1.62.6-.54,1.46-.68,2.2-.37.72.23,1.39.59,1.98,1.06,2.05,1.73,3.87,3.73,5.4,5.94,2.19,3.06,4.07,6.43,6.19,9.54,5.76,8.48,8.77,15.67,16.4,22.51,3.03,2.72,8.24,5.13,11.75,7.02.5.25.05,1.77.09,2.63Z"/><path class="cls-9_product-manager-26" d="M209.48,180.52c-2.19-.12-3.84-1.94-5.24-3.64l-5.68-6.91c-.82-1.16-1.89-2.11-3.13-2.8-.17-.1-.38-.13-.57-.09-.2.12-.34.31-.38.53-.32.98-.46,2.01-.4,3.03.06.31.01.63-.14.9-.31.27-.73.36-1.13.26l-7.75-.82c-1.28.09-2.56-.15-3.72-.71-1.4-.56-2.97-.47-4.3.25-1.49,1.09-1.56,3.29-1.11,5.09,1.55,5.91,6.61,10.22,12.68,10.82,3.17.25,6.35-.57,9.51-.17,2.03.26,4.09,1.02,6.07.48,2.55-.73,4.06-3.98,5.29-6.24Z"/><path class="cls-7_product-manager-26" d="M270.79,403.03c-.63,3.19-1.73,6.98-5.19,7.54-1.58.2-3.16-.31-4.31-1.41-2.4-2.17-2.98-5.31-3.48-8.33-7.59-46.15-7.21-94.45,8.2-138.61,11.15,0,22.62-.11,33.71-.14,1.8-.39,3.57.74,3.97,2.54.03.16.06.32.07.48,13.84,46.03,20.72,95.35,10.38,142.28-.89,4.06-2.85,8.95-7.16,9-1.69-.03-3.28-.77-4.4-2.04-2.23-2.48-2.67-5.68-3.06-8.82-2.9-23.97-6.28-70.76-13.92-93.67-1.65.94-10.38,68.8-14.81,91.18Z"/><path class="cls-9_product-manager-26" d="M365.38,258.87c.14,0,.27.05.37.14.06.13.06.27,0,.4-.43,1.89-3.27,2.35-3.85,4.2-.04.09-.04.19,0,.28.08.12.21.2.36.22,2.6.56,5.24-.52,7.84-1.08,2.04-.39,4.11-.62,6.19-.68,1.26-.12,2.54-.12,3.8,0,.34.02.67.14.94.36.28.35.35.82.19,1.24-.21.42-.5.78-.85,1.08-2.56,2.45-5.36,4.63-8.37,6.5-4.06,2.91-9.26,3.74-14.02,2.23-2.91-.63-5.77-1.55-8.67-1.91-.25-.01-.5-.07-.73-.19-.23-.15-.41-.37-.52-.62-.58-1.19-.62-2.57-.12-3.79.97-2.48,2.48-3.43,4.95-4.1,2.79-.78,5.21-2.48,7.9-3.49,1.46-.58,3.02-.85,4.59-.79Z"/><path class="cls-9_product-manager-26" d="M303.2,424.13c.03.85.2,1.69.51,2.48.75,1.33,1.94,2.36,3.37,2.9,2.72,1.26,5.67,1.92,8.67,1.94,1.04.13,2.08-.23,2.82-.97.26-.37.41-.79.45-1.24.05-1.68-.62-3.31-1.85-4.47-1.13-1.24-2.48-2.2-3.62-3.43-1.3-1.44-2.21-3.18-2.65-5.06-.06-.46-.22-.91-.46-1.31-.28-.33-.64-.59-1.04-.76-1.7-.78-5.92-1.83-6.97.3-.5.99.21,3.34.32,4.43l.45,5.19Z"/><path class="cls-9_product-manager-26" d="M254.57,420.57c-1.09,1.24-2.3,2.75-1.91,4.35.48,1.4,1.82,2.32,3.29,2.28,1.44-.06,2.84-.42,4.12-1.08l4.48-1.89c1.33-.39,2.48-1.23,3.27-2.38.34-.78.51-1.63.5-2.48l.5-8.93c.06-1.24,0-2.69-.93-3.46-2.56-2.03-6.63.51-7.43,3.08-1.15,3.9-3.16,7.49-5.89,10.5Z"/></g></svg>